<svg xmlns="http://www.w3.org/2000/svg" version="1.1" xmlns:xlink="http://www.w3.org/1999/xlink" xmlns:svgjs="http://svgjs.com/svgjs" width="1440" height="560" preserveAspectRatio="none" viewBox="0 0 1440 560"><g mask="url(&quot;#SvgjsMask1014&quot;)" fill="none"><path d="M52.45 55.66a34.31 34.31 0 1 0-38.37 56.89z" fill="rgba(16, 124, 16, 0.36)"></path><path d="M106.05 426.34L146.4 426.34L146.4 480.73L106.05 480.73z" stroke="rgba(16, 124, 16, 0.36)"></path><path d="M976.44 271.28L987.76 271.28L987.76 303.9L976.44 303.9z" fill="rgba(0, 48, 135, 0.34)"></path><path d="M1316.67 470.52a0.12 0.12 0 1 0 0.06-0.23z" fill="rgba(16, 124, 16, 0.36)"></path><path d="M49.28 490.6L50.87 490.6L50.87 492.06L49.28 492.06z" stroke="rgba(255, 0, 1, 0.36)"></path><path d="M1152.63 131.06L1167.93 131.06L1167.93 177.16L1152.63 177.16z" fill="rgba(0, 48, 135, 0.34)"></path><path d="M118.88 48.31a16.44 16.44 0 1 0 1.5 32.85z" stroke="rgba(255, 0, 1, 0.36)"></path><path d="M1239.79 305.72L1281.7 305.72L1281.7 347.63L1239.79 347.63z" fill="rgba(0, 48, 135, 0.34)"></path><path d="M946.05 432.35L963.72 432.35L963.72 486.56L946.05 486.56z" stroke="rgba(0, 48, 135, 0.34)"></path><path d="M22.26 510.64 a0.78 0.78 0 1 0 1.56 0 a0.78 0.78 0 1 0 -1.56 0z" stroke="rgba(0, 48, 135, 0.34)"></path><path d="M329.45 433.3 a36.03 36.03 0 1 0 72.06 0 a36.03 36.03 0 1 0 -72.06 0z" fill="rgba(16, 124, 16, 0.36)"></path><path d="M598.46 440.9L605.02 440.9L605.02 447.46L598.46 447.46z" stroke="rgba(0, 48, 135, 0.34)"></path><path d="M1047.88 234.26L1080.83 234.26L1080.83 256.83L1047.88 256.83z" fill="rgba(16, 124, 16, 0.36)"></path><path d="M339.36 241.88L387.85 241.88L387.85 290.37L339.36 290.37z" fill="rgba(255, 0, 1, 0.36)"></path><path d="M1298.01 326.47 a36.69 36.69 0 1 0 73.38 0 a36.69 36.69 0 1 0 -73.38 0z" fill="rgba(255, 0, 1, 0.36)"></path><path d="M1079.79 166.73 a23.45 23.45 0 1 0 46.9 0 a23.45 23.45 0 1 0 -46.9 0z" fill="rgba(255, 0, 1, 0.36)"></path><path d="M1097.59 565.17a44.3 44.3 0 1 0-9.42-88.09z" stroke="rgba(0, 48, 135, 0.34)"></path><path d="M194.88 260.91a49.87 49.87 0 1 0 44.37 89.32z" fill="rgba(0, 48, 135, 0.34)"></path><path d="M234.15 387.89L275.71 387.89L275.71 434.46L234.15 434.46z" stroke="rgba(16, 124, 16, 0.36)"></path><path d="M132.57 276.7L187.01 276.7L187.01 298.78L132.57 298.78z" stroke="rgba(255, 0, 1, 0.36)"></path><path d="M701.13 572.93a32.84 32.84 0 1 0-18.86-62.91z" stroke="rgba(255, 0, 1, 0.36)"></path><path d="M966.49 231.1a35.78 35.78 0 1 0-5.16-71.37z" stroke="rgba(16, 124, 16, 0.36)"></path><path d="M345.31 525.51L400.02 525.51L400.02 580.22L345.31 580.22z" stroke="rgba(255, 0, 1, 0.36)"></path><path d="M325.38 551.9L345.2 551.9L345.2 571.72L325.38 571.72z" fill="rgba(255, 0, 1, 0.36)"></path><path d="M1260.36 300.69 a11.1 11.1 0 1 0 22.2 0 a11.1 11.1 0 1 0 -22.2 0z" fill="rgba(16, 124, 16, 0.36)"></path><path d="M771.88 51.9L779.17 51.9L779.17 59.19L771.88 59.19z" stroke="rgba(255, 0, 1, 0.36)"></path><path d="M1348.13 513.07L1378.83 513.07L1378.83 543.77L1348.13 543.77z" fill="rgba(255, 0, 1, 0.36)"></path><path d="M259.6 539.61 a35.78 35.78 0 1 0 71.56 0 a35.78 35.78 0 1 0 -71.56 0z" fill="rgba(16, 124, 16, 0.36)"></path><path d="M697.46 294.23a51.48 51.48 0 1 0 99.47-26.58z" stroke="rgba(16, 124, 16, 0.36)"></path><path d="M811.59 351.76 a12.75 12.75 0 1 0 25.5 0 a12.75 12.75 0 1 0 -25.5 0z" stroke="rgba(255, 0, 1, 0.36)"></path><path d="M993.96 65.79a32.61 32.61 0 1 0-58.97-27.87z" fill="rgba(255, 0, 1, 0.36)"></path><path d="M1221.14 515.5L1260.91 515.5L1260.91 532.17L1221.14 532.17z" fill="rgba(16, 124, 16, 0.36)"></path><path d="M519.25 500.09a43.87 43.87 0 1 0 48.83-72.89z" fill="rgba(16, 124, 16, 0.36)"></path></g><defs><mask id="SvgjsMask1014"><rect width="1440" height="560" fill="#ffffff"></rect></mask></defs></svg>