<svg xmlns="http://www.w3.org/2000/svg" version="1.1" xmlns:xlink="http://www.w3.org/1999/xlink" xmlns:svgjs="http://svgjs.com/svgjs" width="1440" height="560" preserveAspectRatio="none" viewBox="0 0 1440 560"><g mask="url(&quot;#SvgjsMask1019&quot;)" fill="none"><path d="M1041.32 284.84 a50.09 50.09 0 1 0 100.18 0 a50.09 50.09 0 1 0 -100.18 0z" fill="rgba(255, 0, 1, 1)"></path><path d="M814.54 375.77L848.21 375.77L848.21 409.44L814.54 409.44z" fill="rgba(255, 0, 1, 1)"></path><path d="M519.5 353.57a29.57 29.57 0 1 0 30.37-50.75z" fill="rgba(255, 0, 1, 1)"></path><path d="M124.94 266.39L147.58 266.39L147.58 289.03L124.94 289.03z" fill="rgba(0, 48, 135, 1)"></path><path d="M1361.04 510.05L1379.2 510.05L1379.2 528.21L1361.04 528.21z" stroke="rgba(0, 48, 135, 1)"></path><path d="M1338.71 550.88L1361.39 550.88L1361.39 573.56L1338.71 573.56z" fill="rgba(0, 48, 135, 1)"></path><path d="M250 285.87L253.63 285.87L253.63 298.2L250 298.2z" stroke="rgba(16, 124, 16, 1)"></path><path d="M521.69 419.02a40.61 40.61 0 1 0 5.25-81.05z" stroke="rgba(0, 48, 135, 1)"></path><path d="M354.47 504.63a48.25 48.25 0 1 0-82.86 49.46z" stroke="rgba(16, 124, 16, 1)"></path><path d="M115.8 461.6L136.49 461.6L136.49 478.35L115.8 478.35z" stroke="rgba(255, 0, 1, 1)"></path><path d="M899.69 289.56 a26.97 26.97 0 1 0 53.94 0 a26.97 26.97 0 1 0 -53.94 0z" stroke="rgba(16, 124, 16, 1)"></path><path d="M988.99 450.03L1017.84 450.03L1017.84 488.59L988.99 488.59z" fill="rgba(16, 124, 16, 1)"></path><path d="M1356.45 426.76 a0.59 0.59 0 1 0 1.18 0 a0.59 0.59 0 1 0 -1.18 0z" fill="rgba(255, 0, 1, 1)"></path><path d="M1073.39 21.65L1076.92 21.65L1076.92 25.18L1073.39 25.18z" stroke="rgba(0, 48, 135, 1)"></path><path d="M855.66 248.9L887.63 248.9L887.63 280.87L855.66 280.87z" fill="rgba(0, 48, 135, 1)"></path><path d="M51.83 439.75L74.24 439.75L74.24 462.16L51.83 462.16z" stroke="rgba(255, 0, 1, 1)"></path><path d="M489.84 195.49L523.11 195.49L523.11 234.2L489.84 234.2z" fill="rgba(16, 124, 16, 1)"></path><path d="M349.71 7.24 a24.92 24.92 0 1 0 49.84 0 a24.92 24.92 0 1 0 -49.84 0z" stroke="rgba(16, 124, 16, 1)"></path><path d="M718.52 7.64 a47.79 47.79 0 1 0 95.58 0 a47.79 47.79 0 1 0 -95.58 0z" stroke="rgba(16, 124, 16, 1)"></path><path d="M1328.96 146.46L1349.48 146.46L1349.48 182.7L1328.96 182.7z" fill="rgba(0, 48, 135, 1)"></path><path d="M1182.54 279.51L1185.6 279.51L1185.6 282.57L1182.54 282.57z" fill="rgba(16, 124, 16, 1)"></path><path d="M393.65 434.17 a54.8 54.8 0 1 0 109.6 0 a54.8 54.8 0 1 0 -109.6 0z" fill="rgba(255, 0, 1, 1)"></path><path d="M-15.09 97.93a50.87 50.87 0 1 0 48.64-89.36z" fill="rgba(255, 0, 1, 1)"></path><path d="M1399.59 165.25 a34.15 34.15 0 1 0 68.3 0 a34.15 34.15 0 1 0 -68.3 0z" fill="rgba(255, 0, 1, 1)"></path><path d="M1053.9 512.26 a33.86 33.86 0 1 0 67.72 0 a33.86 33.86 0 1 0 -67.72 0z" fill="rgba(16, 124, 16, 1)"></path><path d="M58.55 484.52L93.32 484.52L93.32 506.07L58.55 506.07z" stroke="rgba(0, 48, 135, 1)"></path><path d="M486.66 186.74a43.02 43.02 0 1 0-66.33 54.82z" fill="rgba(0, 48, 135, 1)"></path><path d="M1166.6 513.31L1222.55 513.31L1222.55 569.26L1166.6 569.26z" stroke="rgba(255, 0, 1, 1)"></path><path d="M892.82 476.77L945.58 476.77L945.58 512.93L892.82 512.93z" stroke="rgba(255, 0, 1, 1)"></path><path d="M399.93 31.76a20.54 20.54 0 1 0-6 40.64z" fill="rgba(0, 48, 135, 1)"></path><path d="M233.67 232.87L257.39 232.87L257.39 288.61L233.67 288.61z" fill="rgba(16, 124, 16, 1)"></path><path d="M1347.16 301.04L1397.54 301.04L1397.54 351.42L1347.16 351.42z" stroke="rgba(0, 48, 135, 1)"></path><path d="M307.03 557.87L340.42 557.87L340.42 591.26L307.03 591.26z" fill="rgba(255, 0, 1, 1)"></path></g><defs><mask id="SvgjsMask1019"><rect width="1440" height="560" fill="#ffffff"></rect></mask></defs></svg>